# xmcd
#
# Track frame offsets:
#	180
#	18680
#	29252
#	42404
#	59779
#	78641
#	97214
#	114316
#	127735
#	146401
#	156958
#	170162
#	187472
#	206364
#	224578
#	241748
#
# Disc length: 3406 seconds
#
# Revision: 1
# Processed by: cddbd v1.5.2PL0 Copyright (c) Steve Scherf et al.
# Submitted via: audiograbber 1.83.01
#
DISCID=f30d4c10
DTITLE=Twain, Shania - PSCDG1225
DYEAR=1900
DGENRE=Karaoke
TTITLE0=Whose Bed HAve You Been Under? (With Vocals)
TTITLE1=Dance With The One That Brough You (With Vocals)
TTITLE2=What Made You Say That? (With Vocals)
TTITLE3=(If You.re Not In It For Love) I'm Outta Here! (With Vocals)
TTITLE4=The Woman In Me (Needs The Man In You) (With Vocals)
TTITLE5=Any Man Of  Mine (With Vocals)
TTITLE6=You Win My Love (With Vocals)
TTITLE7=No One Needs To Know (With Vocals)
TTITLE8=Whose Bed HAve You Been Under?
TTITLE9=Dance With The One That Brough You
TTITLE10=What Made You Say That?
TTITLE11=(If You.re Not In It For Love) I'm Outta Here!
TTITLE12=The Woman In Me (Needs The Man In You)
TTITLE13=Any Man Of  Mine
TTITLE14=You Win My Love
TTITLE15=No One Needs To Know
EXTD=
EXTT0=
EXTT1=
EXTT2=
EXTT3=
EXTT4=
EXTT5=
EXTT6=
EXTT7=
EXTT8=
EXTT9=
EXTT10=
EXTT11=
EXTT12=
EXTT13=
EXTT14=
EXTT15=
PLAYORDER=
